PathFileType	4	(X/Y/Z)	/Users/visionmauri/Downloads/Videos/OAW06-top_Sports2D/OAW06-top_Sports2D_m_person00.trc
DataRate	CameraRate	NumFrames	NumMarkers	Units	OrigDataRate	OrigDataStartFrame	OrigNumFrames
30.0	30.0	9	22	m	30.0	0	1524
Frame#	Time	Hip			RHip			RKnee			RAnkle			RBigToe			RSmallToe			RHeel			LHip			LKnee			LAnkle			LBigToe			LSmallToe			LHeel			Neck			Head			Nose			RShoulder			RElbow			RWrist			LShoulder			LElbow			LWrist			
		X1	Y1	Z1	X2	Y2	Z2	X3	Y3	Z3	X4	Y4	Z4	X5	Y5	Z5	X6	Y6	Z6	X7	Y7	Z7	X8	Y8	Z8	X9	Y9	Z9	X10	Y10	Z10	X11	Y11	Z11	X12	Y12	Z12	X13	Y13	Z13	X14	Y14	Z14	X15	Y15	Z15	X16	Y16	Z16	X17	Y17	Z17	X18	Y18	Z18	X19	Y19	Z19	X20	Y20	Z20	X21	Y21	Z21	X22	Y22	Z22
132	4.402069614299154	4.888939484052453	0.3897182084703414	0.0301	4.873944290772332	0.4103374538728612	0.0301	4.771316715502348	0.36593288542459523	0.129	4.684188492821665	0.32732424479070044	0.023	4.650257690983746	0.31987009398095917	0.2179	4.648813103115802	0.32948156972765663	0.1804	4.667765906360079	0.3197642305112515	-0.0119	4.8945132681279615	0.36514167096913414	0.0301	4.789095790032675	0.33107311591127525	0.129	4.692595220885071	0.295995802142131	0.023	4.652874261289949	0.29145111071427565	0.2179	4.6603496560609505	0.27974371423192146	0.1804	4.6783373661020216	0.2908131548318697	-0.0119	5.034806109914422	0.4583088586650927	0.0008	5.102272210899796	0.48955613751612675	0.0655	5.043447838932511	0.4719876499978236	0.1076	5.001335638674688	0.4948575642707594	-0.01275	4.920223814682965	0.47152855019485784	0.0702	4.855118970598446	0.44157955211618394	0.1076	5.038811178246019	0.405645645766193	-0.01275	4.966962198142496	0.3602670887072396	0.0702	4.908145205101496	0.3303103795413236	0.1076
133	4.435418626528693	4.888776911589385	0.38934042912459454	0.0301	4.874050849557745	0.41031882914252077	0.0301	4.771086362308531	0.36633052143001865	0.129	4.684640400632508	0.32681272115739723	0.023	4.650935020820571	0.3194243816612776	0.2179	4.649655007983696	0.3285220771183243	0.1804	4.66795995699301	0.31932525311603477	-0.0119	4.89455424385907	0.3653229097322685	0.0301	4.788896661005196	0.3310732564157639	0.129	4.692884327748413	0.295829133558999	0.023	4.6532118935737525	0.29184983249062796	0.2179	4.66027396055512	0.2798796866987248	0.1804	4.678581958385068	0.290598766485214	-0.0119	5.034688742870366	0.45804858992051234	0.0008	5.101860046308653	0.48947648371577307	0.0655	5.043388345605296	0.47175891489542493	0.1076	5.000665035696701	0.4942424836764194	-0.01275	4.919930108605593	0.4712114279697172	0.0702	4.85428150388279	0.441391887982945	0.1076	5.0381591232724965	0.40522644037931266	-0.01275	4.966763903113785	0.35995895111630277	0.0702	4.906676573233577	0.32965586526564167	0.1076
134	4.468767638758232	4.888162801431994	0.3887619820104677	0.0301	4.874036169335859	0.4100984180876385	0.0301	4.7707727542453995	0.3664345219510115	0.129	4.684895189273581	0.32645467807100526	0.023	4.651469954153307	0.3183973073811676	0.2179	4.650555244944132	0.32723401129866925	0.1804	4.668054441788019	0.31908378883257893	-0.0119	4.8944971226608365	0.36512049896788784	0.0301	4.788755231359514	0.33097869390038553	0.129	4.693020691980842	0.295681326884902	0.023	4.653393309229365	0.29144871544434514	0.2179	4.660405801452434	0.27943344712103974	0.1804	4.678477064875787	0.2904344101702137	-0.0119	5.033537407722842	0.45709792821849504	0.0008	5.101634204551795	0.48903826838692893	0.0655	5.043731282142653	0.4709614958488111	0.1076	4.999178432566292	0.4934131181315986	-0.01275	4.919140683587686	0.47059747534373125	0.0702	4.852931213394927	0.4409591005305328	0.1076	5.037068073720733	0.404178523590393	-0.01275	4.966319311943601	0.35944029881349787	0.0702	4.904932949230957	0.3282253795429332	0.1076
135	4.502116650987771	4.887165585679888	0.3880599597310851	0.0301	4.873934236473767	0.4096082793676834	0.0301	4.770446613164771	0.3660043596405767	0.129	4.684728578989635	0.32652521404593565	0.023	4.651571721453762	0.31712150621058005	0.2179	4.651067774953254	0.3263002993127947	0.1804	4.6681220436661945	0.31915265208492044	-0.0119	4.894435257734589	0.36435452340007585	0.0301	4.788645707472466	0.3308542928460481	0.129	4.6928801502883255	0.2954963173423484	0.023	4.653148819823846	0.290077536166017	0.2179	4.660614257959625	0.27823112089262736	0.1804	4.677844266044868	0.29029231618929713	-0.0119	5.031133318700771	0.45543226247748453	0.0008	5.101599686769453	0.4884821613012053	0.0655	5.0440875448538645	0.46967522025167263	0.1076	4.997529995891572	0.4926156023319743	-0.01275	4.918203294049562	0.46970636767851826	0.0702	4.8513682477606705	0.44032050952048785	0.1076	5.036005677430078	0.40283732632139957	-0.01275	4.9657103452558715	0.35886491998986697	0.0702	4.903462139170392	0.3259835029642235	0.1076
136	4.53546566321731	4.886004842056194	0.3870701619471649	0.0301	4.873437655622307	0.40859948633667953	0.0301	4.770093666995009	0.3651783031538191	0.129	4.684331534283725	0.32690418667377785	0.023	4.651307584588155	0.31630217053583115	0.2179	4.650802523943254	0.326171503676706	0.1804	4.668270956085085	0.31940918612392505	-0.0119	4.894064240071281	0.3631654123689862	0.0301	4.787861666358901	0.33056678820056656	0.129	4.692530863581082	0.29507058193974434	0.023	4.652407320599461	0.28855085390065827	0.2179	4.660394260234623	0.27671159622017366	0.1804	4.677015493840285	0.28996990302153053	-0.0119	5.028964185554833	0.4538172367900329	0.0008	5.101534891171763	0.4879008617681615	0.0655	5.043788110425166	0.468558600675541	0.1076	4.996955326821945	0.4919062892151863	-0.01275	4.917579286483553	0.4686700486180153	0.0702	4.850004534735299	0.43940800514687695	0.1076	5.03570190286387	0.4018845100147116	-0.01275	4.96508213743003	0.3583239319216517	0.0702	4.902822693093512	0.32378630896002314	0.1076
137	4.568814675446849	4.884718570276194	0.38562667727142624	0.0301	4.872066382035305	0.4069629651315656	0.0301	4.7696714594192064	0.3643495876033521	0.129	4.684218583865816	0.32705067862376264	0.023	4.651075384524294	0.31611554571519346	0.2179	4.650181580363523	0.32638206891202376	0.1804	4.668369480153824	0.319486247987692	-0.0119	4.89292434051511	0.36183225865728447	0.0301	4.785938297905771	0.32975692997527006	0.129	4.692063191394995	0.2941944112838155	0.023	4.651481111651372	0.2877279793092347	0.2179	4.659509846246055	0.2754837526100558	0.1804	4.676373892052197	0.28922087011160996	-0.0119	5.028780845510175	0.4527240746315595	0.0008	5.101352608811444	0.4867333705868887	0.0655	5.043121387928012	0.4677332195392385	0.1076	4.997409194449769	0.4908290987551235	-0.01275	4.917036226565438	0.4674922735290396	0.0702	4.848982340955073	0.43818402033318543	0.1076	5.035931175607273	0.40109831691317827	-0.01275	4.964481299110076	0.3574244275533611	0.0702	4.903025494016193	0.3224457230317459	0.1076
138	4.602163687676388	4.883572698663162	0.384249667131404	0.0301	4.870314028894196	0.4054240994872392	0.0301	4.769501963855136	0.36371880188800115	0.129	4.684534661271662	0.32678242730334656	0.023	4.65108309261653	0.31621706694426777	0.2179	4.650140046682594	0.32663049684140383	0.1804	4.668363365475426	0.31912448458871573	-0.0119	4.891785711644852	0.3604840771043681	0.0301	4.783883712261809	0.3284588212806684	0.129	4.691385720688029	0.2929913546591978	0.023	4.650625480567672	0.28760913867143856	0.2179	4.658347232165081	0.2746584056925699	0.1804	4.675767771849208	0.2880698239048197	-0.0119	5.030243725736685	0.45156620832079325	0.0008	5.101425024799206	0.484882099487277	0.0655	5.043104052951952	0.46630100324945145	0.1076	4.997870352672588	0.4892046399097445	-0.01275	4.9164570975471165	0.4662256924413305	0.0702	4.8486248665750855	0.4371786118301477	0.1076	5.035986115456979	0.39967058375922937	-0.01275	4.963910590629922	0.3557028736586499	0.0702	4.903780510565757	0.32169891971328657	0.1076
139	4.635512699905927	4.883003816942005	0.3834328368181535	0.0301	4.869360963431592	0.40469682675119495	0.0301	4.769752696113954	0.3632422935852838	0.129	4.684969534173668	0.32647942855640255	0.023	4.65131571343563	0.31619797427174773	0.2179	4.650905921358525	0.3269146598695238	0.1804	4.6684859414865745	0.3186107808979618	-0.0119	4.891897811009859	0.35916645505471867	0.0301	4.7829040264240446	0.32713966661658384	0.129	4.690464516822335	0.291892599701192	0.023	4.649723186673513	0.2876841089661095	0.2179	4.657375565644144	0.2739716992551532	0.1804	4.675027943299059	0.2869443532002926	-0.0119	5.0319535085634115	0.4499129242403796	0.0008	5.102364928017296	0.4830082978413277	0.0655	5.044330787572953	0.4638881967669169	0.1076	4.99805976708941	0.48741083675727287	-0.01275	4.916365887571697	0.465172000815872	0.0702	4.84909650474609	0.4369345767155112	0.1076	5.035934250066019	0.3974904296266929	-0.01275	4.963386819772705	0.3532878100885126	0.0702	4.904630367436294	0.3209003506667714	0.1076
140	4.668861712135466	4.883022585555399	0.38286181397158364	0.0301	4.8695118123958485	0.4043538066077076	0.0301	4.7696278569915025	0.36284529992812353	0.129	4.685289417900764	0.32636546940578476	0.023	4.651638643140161	0.3160626993135921	0.2179	4.651673341911271	0.32703816634438954	0.1804	4.668746927866108	0.31837255579546664	-0.0119	4.892655184302176	0.35801123097207715	0.0301	4.782852677101855	0.32611882662214053	0.129	4.689599795220528	0.2911705293108873	0.023	4.6487904110046925	0.28753611685015373	0.2179	4.656663103310498	0.2733894737471972	0.1804	4.674407240066785	0.2862780344940473	-0.0119	5.033401298457628	0.4482998309025189	0.0008	5.104101532860102	0.4812850527631335	0.0655	5.046397655381326	0.4615137194760893	0.1076	4.998488716411778	0.48575832672448316	-0.01275	4.917053555554483	0.46445486584682005	0.0702	4.849900281101958	0.437258223481339	0.1076	5.036247101947697	0.3951815823531616	-0.01275	4.963221407849658	0.3508938362116038	0.0702	4.904985611751709	0.32003789741581146	0.1076
